<svg id="Capa_1" data-name="Capa 1" xmlns="http://www.w3.org/2000/svg" xmlns:xlink="http://www.w3.org/1999/xlink" viewBox="0 0 955.42 853.46"><defs><style>.cls-1,.cls-2{fill:none;stroke:#a7c834;stroke-miterlimit:10;}.cls-1{stroke-width:0.5px;}.cls-2{stroke-width:0.25px;}.cls-3{fill:url(#Degradado_sin_nombre_38);}.cls-4{fill:url(#Degradado_sin_nombre_42);}.cls-5{fill:#73b64c;}.cls-6{fill:#7aba49;}.cls-7{fill:url(#Degradado_sin_nombre_41);}.cls-8{fill:#34b298;}.cls-9{fill:#5db469;}.cls-10{fill:#34b297;}.cls-11{fill:#75b94d;}.cls-12{fill:#4eb16c;}.cls-13{fill:#a7c834;}</style><linearGradient id="Degradado_sin_nombre_38" x1="776" y1="559.15" x2="1097.05" y2="559.15" gradientTransform="matrix(-0.32, 0.98, -0.55, -0.57, 1351.72, 59.77)" gradientUnits="userSpaceOnUse"><stop offset="0" stop-color="#a7c834"/><stop offset="0.11" stop-color="#8bc34c"/><stop offset="0.27" stop-color="#6cbd67"/><stop offset="0.43" stop-color="#53b87c"/><stop offset="0.6" stop-color="#42b58b"/><stop offset="0.78" stop-color="#37b394"/><stop offset="1" stop-color="#34b297"/></linearGradient><linearGradient id="Degradado_sin_nombre_42" x1="754.45" y1="348.95" x2="910.73" y2="348.95" gradientTransform="translate(1215.1 1166.66) rotate(-137.81)" gradientUnits="userSpaceOnUse"><stop offset="0" stop-color="#a7c834"/><stop offset="0.44" stop-color="#6ebd65"/><stop offset="0.81" stop-color="#44b589"/><stop offset="1" stop-color="#34b297"/></linearGradient><linearGradient id="Degradado_sin_nombre_41" x1="318.36" y1="151.83" x2="117.27" y2="151.83" gradientTransform="matrix(0.35, -0.87, 0.42, 0.73, 204.02, 491.44)" gradientUnits="userSpaceOnUse"><stop offset="0" stop-color="#45b386"/><stop offset="0.43" stop-color="#75b94d"/><stop offset="0.83" stop-color="#a7c834"/></linearGradient></defs><ellipse class="cls-1" cx="198.36" cy="196.9" rx="171.12" ry="172.5"/><ellipse class="cls-2" cx="198.36" cy="199.96" rx="198.23" ry="199.83"/><rect class="cls-3" x="727.25" y="540.34" width="104.09" height="34.56" transform="translate(656.1 1430.29) rotate(-120)"/><rect class="cls-4" x="738.35" y="336.57" width="188.48" height="24.76" transform="translate(1653.88 -32.71) rotate(137.81)"/><rect class="cls-5" x="482.7" y="475.97" width="188.48" height="43.46" transform="translate(1224.54 765.24) rotate(166.44)"/><rect class="cls-6" x="268.22" y="636.98" width="165.95" height="46.64" transform="translate(1068.48 547.68) rotate(115.59)"/><rect class="cls-7" x="273.87" y="385.92" width="143.2" height="51.8" transform="translate(410.34 -198.31) rotate(50.15)"/><ellipse class="cls-8" cx="893.18" cy="189.22" rx="62.24" ry="64.55"/><ellipse class="cls-9" cx="693.61" cy="369.33" rx="83.12" ry="86.22"/><circle class="cls-10" cx="805.43" cy="593.13" r="90.14"/><circle class="cls-11" cx="400.84" cy="448.23" r="88.9"/><circle class="cls-12" cx="232.45" cy="730.6" r="122.83"/><circle class="cls-13" cx="197.95" cy="196.05" r="138.76"/></svg>