<svg id="Capa_1" data-name="Capa 1" xmlns="http://www.w3.org/2000/svg" viewBox="0 0 955.42 853.46"><defs><style>.cls-1,.cls-2{fill:none;stroke:#a7c834;stroke-miterlimit:10;}.cls-1{stroke-width:0.5px;}.cls-2{stroke-width:0.25px;}.cls-3{fill:#a7c834;}</style></defs><ellipse class="cls-1" cx="198.36" cy="196.9" rx="171.12" ry="172.5"/><ellipse class="cls-2" cx="198.36" cy="199.96" rx="198.23" ry="199.83"/><path class="cls-3" d="M923.12,334.8c34.37,0,62.23-28.9,62.23-64.55s-27.86-64.56-62.23-64.56-62.24,28.9-62.24,64.56A66.2,66.2,0,0,0,868,300.17l-92,83.34a81,81,0,0,0-52.48-19.37c-45.9,0-83.12,38.6-83.12,86.22a91.24,91.24,0,0,0,.52,9.55L511.15,491.22A89,89,0,0,0,406,443.87L337.62,362a138.68,138.68,0,1,0-38.8,34.34l63.55,76.14a88.9,88.9,0,0,0-.92,112.42L307.58,697.4a122.84,122.84,0,1,0,39.58,25.33l52.72-110.1a88.93,88.93,0,0,0,119.68-78.74l136.68-33c15.1,21.59,39.61,35.64,67.3,35.64a80.49,80.49,0,0,0,21.9-3l38.46,66.62a89.86,89.86,0,1,0,31.83-14L776,517.26a88.49,88.49,0,0,0,16.46-115.18l90.8-82.31A60.64,60.64,0,0,0,923.12,334.8Z" transform="translate(-29.93 -81.02)"/></svg>