<svg id="Capa_1" data-name="Capa 1" xmlns="http://www.w3.org/2000/svg" xmlns:xlink="http://www.w3.org/1999/xlink" viewBox="0 0 912.5 885.71"><defs><style>.cls-1{fill:#fff;}.cls-2{fill:url(#Degradado_sin_nombre_52);}.cls-3,.cls-4{fill:none;stroke:#a7c834;stroke-miterlimit:10;}.cls-3{stroke-width:0.5px;}.cls-4{stroke-width:0.25px;}.cls-5{fill:url(#Degradado_sin_nombre_38);}.cls-6{fill:url(#Degradado_sin_nombre_42);}.cls-7{fill:#73b64c;}.cls-8{fill:#7aba49;}.cls-9{fill:url(#Degradado_sin_nombre_41);}.cls-10{fill:#34b298;}.cls-11{fill:#5db469;}.cls-12{fill:#34b297;}.cls-13{fill:#75b94d;}.cls-14{fill:#4eb16c;}.cls-15{fill:#a7c834;}</style><linearGradient id="Degradado_sin_nombre_52" x1="481.16" y1="871.28" x2="481.16" y2="694.49" gradientUnits="userSpaceOnUse"><stop offset="0" stop-color="#34b297"/><stop offset="0.25" stop-color="#3eb287"/><stop offset="0.57" stop-color="#4eb26c"/><stop offset="0.74" stop-color="#50b36b"/><stop offset="0.81" stop-color="#58b466"/><stop offset="0.87" stop-color="#64b85e"/><stop offset="0.92" stop-color="#76bc53"/><stop offset="0.97" stop-color="#8ec244"/><stop offset="1" stop-color="#a7c834"/></linearGradient><linearGradient id="Degradado_sin_nombre_38" x1="619.35" y1="279.67" x2="819.49" y2="279.67" gradientTransform="matrix(-0.32, 0.98, -0.55, -0.57, 1022.8, -99.4)" gradientUnits="userSpaceOnUse"><stop offset="0" stop-color="#a7c834"/><stop offset="0.11" stop-color="#8bc34c"/><stop offset="0.27" stop-color="#6cbd67"/><stop offset="0.43" stop-color="#53b87c"/><stop offset="0.6" stop-color="#42b58b"/><stop offset="0.78" stop-color="#37b394"/><stop offset="1" stop-color="#34b297"/></linearGradient><linearGradient id="Degradado_sin_nombre_42" x1="645.29" y1="253" x2="742.72" y2="253" gradientTransform="translate(1038.29 906.55) rotate(-137.81)" gradientUnits="userSpaceOnUse"><stop offset="0" stop-color="#a7c834"/><stop offset="0.44" stop-color="#6ebd65"/><stop offset="0.81" stop-color="#44b589"/><stop offset="1" stop-color="#34b297"/></linearGradient><linearGradient id="Degradado_sin_nombre_41" x1="282.2" y1="1.59" x2="156.84" y2="1.59" gradientTransform="matrix(0.35, -0.87, 0.42, 0.73, 311.98, 482.91)" gradientUnits="userSpaceOnUse"><stop offset="0" stop-color="#45b386"/><stop offset="0.43" stop-color="#75b94d"/><stop offset="0.83" stop-color="#a7c834"/></linearGradient></defs><path class="cls-1" d="M58.17,965.44,55,971.63H50.15l14.91-28.84h4.81l14.88,28.84H80l-3.18-6.19Zm9.28-18L60.3,961.32H74.61Z" transform="translate(-50.15 -85.92)"/><path class="cls-1" d="M112,942.79a17.22,17.22,0,0,1,4.27.52,17.82,17.82,0,0,1,3.85,1.47,17.64,17.64,0,0,1,3.31,2.27,15.86,15.86,0,0,1,2.58,2.88l-3.81,2a11.89,11.89,0,0,0-1.87-2A11.44,11.44,0,0,0,118,948.3a13.52,13.52,0,0,0-10.54-.56,12.65,12.65,0,0,0-3.78,2.22,10.41,10.41,0,0,0-2.57,3.27,8.94,8.94,0,0,0,0,8,10.34,10.34,0,0,0,2.57,3.28,12.63,12.63,0,0,0,3.78,2.21,13.05,13.05,0,0,0,4.62.82,13.5,13.5,0,0,0,3.14-.37,12.49,12.49,0,0,0,2.82-1,12.31,12.31,0,0,0,2.39-1.6,11.36,11.36,0,0,0,1.87-2.06l3.81,2a14.38,14.38,0,0,1-2.53,2.94,15.88,15.88,0,0,1-3.3,2.28,17.76,17.76,0,0,1-3.89,1.47,17.48,17.48,0,0,1-4.31.52,16.72,16.72,0,0,1-11.49-4.22,13.31,13.31,0,0,1,0-20.37A16.55,16.55,0,0,1,112,942.79Z" transform="translate(-50.15 -85.92)"/><path class="cls-1" d="M136.92,942.79H167.2v4.14h-13v24.7H149.9v-24.7h-13Z" transform="translate(-50.15 -85.92)"/><path class="cls-1" d="M178,971.63V942.79h4.32v28.84Z" transform="translate(-50.15 -85.92)"/><path class="cls-1" d="M197.88,942.79,208.33,966l10.41-23.2h4.71l-13,28.84h-4.32l-13-28.84Z" transform="translate(-50.15 -85.92)"/><path class="cls-1" d="M231.4,965.44l-3.19,6.19h-4.83l14.91-28.84h4.81L258,971.63h-4.8L250,965.44Zm9.28-18-7.15,13.89h14.31Z" transform="translate(-50.15 -85.92)"/><path class="cls-1" d="M295.94,942.79h30.28v4.14h-13v24.7h-4.32v-24.7h-13Z" transform="translate(-50.15 -85.92)"/><path class="cls-1" d="M367.32,957.23a13.5,13.5,0,0,1-4.45,10.18,15.66,15.66,0,0,1-21.39,0A13.52,13.52,0,0,1,337,957.23V942.79h4.32v14.44a9.5,9.5,0,0,0,.86,4,10.24,10.24,0,0,0,2.34,3.28A11.28,11.28,0,0,0,348,966.7a11,11,0,0,0,4.21.82,10.82,10.82,0,0,0,4.15-.82,11.07,11.07,0,0,0,3.44-2.22,10.57,10.57,0,0,0,2.32-3.28,9.27,9.27,0,0,0,.86-4V942.79h4.34Z" transform="translate(-50.15 -85.92)"/><path class="cls-1" d="M405,942.79h30.29v4.14h-26v8.22H431v4.12H409.36v8.25h26v4.11H405Z" transform="translate(-50.15 -85.92)"/><path class="cls-1" d="M472.09,942.79h4.34v28.84h-4.34l-21.62-22.71v22.71h-4.32V942.79h4.32l21.62,22.71Z" transform="translate(-50.15 -85.92)"/><path class="cls-1" d="M487.26,942.79h30.28v4.14h-26v8.22H513.2v4.12H491.58v8.25h26v4.11H487.26Z" transform="translate(-50.15 -85.92)"/><path class="cls-1" d="M528.36,942.79H550a8.63,8.63,0,0,1,3.33.65,9.23,9.23,0,0,1,2.77,1.79,8.49,8.49,0,0,1,1.88,2.64,7.43,7.43,0,0,1,.68,3.17,7.63,7.63,0,0,1-.68,3.2,8.07,8.07,0,0,1-1.88,2.62,9.31,9.31,0,0,1-2.77,1.75,8.46,8.46,0,0,1-3.33.66h-1l9.7,12.36h-5.43l-9.68-12.36H532.68v12.36h-4.32Zm4.32,4.14v8.22H550a4.34,4.34,0,0,0,1.68-.33,4.53,4.53,0,0,0,1.37-.88,4.36,4.36,0,0,0,.92-1.31,3.62,3.62,0,0,0,.35-1.59,3.55,3.55,0,0,0-.35-1.58,4.2,4.2,0,0,0-.94-1.31,4.56,4.56,0,0,0-1.37-.89,4.2,4.2,0,0,0-1.66-.33Z" transform="translate(-50.15 -85.92)"/><path class="cls-1" d="M584.63,942.79a15.06,15.06,0,0,1,10.69,4.2l-3.07,2.92a10.64,10.64,0,0,0-7.62-3,11,11,0,0,0-4.2.81A11.35,11.35,0,0,0,577,950a10.44,10.44,0,0,0-2.33,3.27,9.69,9.69,0,0,0,0,8,10.37,10.37,0,0,0,2.33,3.28,11.33,11.33,0,0,0,3.45,2.21,11,11,0,0,0,4.2.82,10.69,10.69,0,0,0,3.71-.65,10.91,10.91,0,0,0,3.14-1.74,10.77,10.77,0,0,0,2.37-2.62,9.79,9.79,0,0,0,1.35-3.24H582.45v-4.12h17.3v2.08a13.47,13.47,0,0,1-4.46,10.18,15.65,15.65,0,0,1-21.38,0,13.9,13.9,0,0,1,0-20.37A14.93,14.93,0,0,1,584.63,942.79Z" transform="translate(-50.15 -85.92)"/><path class="cls-1" d="M613.25,941h-4.09l3.23-6.9h4.06Zm-2.67,30.65V942.79h4.32v28.84Z" transform="translate(-50.15 -85.92)"/><path class="cls-1" d="M633.73,965.44l-3.18,6.19h-4.83l14.91-28.84h4.81l14.88,28.84h-4.81l-3.18-6.19Zm9.29-18-7.15,13.89h14.3Z" transform="translate(-50.15 -85.92)"/><path class="cls-1" d="M715.57,960.42v11.21h-4.32V960.42l-13-17.63h5.29l9.87,13.4,9.8-13.4h5.32Z" transform="translate(-50.15 -85.92)"/><path class="cls-1" d="M766.28,951.06a6.22,6.22,0,0,1,.75-3.13,7.31,7.31,0,0,1,2-2.23,10.49,10.49,0,0,1,2.82-1.48,22.32,22.32,0,0,1,3.28-.89,30.24,30.24,0,0,1,3.34-.43c1.09-.07,2.08-.11,3-.11a31,31,0,0,1,8,1,24.85,24.85,0,0,1,7.14,3.11l-3.77,2.52a22.25,22.25,0,0,0-5.31-1.88,27.61,27.61,0,0,0-6-.64c-.47,0-1.06,0-1.79,0s-1.49.06-2.29.14-1.59.21-2.4.37a9.77,9.77,0,0,0-2.18.69,4.58,4.58,0,0,0-1.58,1.18,2.61,2.61,0,0,0-.61,1.73q0,3.16,4,3.56c1.36.13,2.78.25,4.27.36s3,.2,4.67.28a31.13,31.13,0,0,1,4.65.56,30.26,30.26,0,0,1,4.26,1.15q4.07,1.44,4.07,6.39a6.39,6.39,0,0,1-.79,3.15,7.35,7.35,0,0,1-2,2.23,10.51,10.51,0,0,1-2.8,1.48,20.48,20.48,0,0,1-3.25.89,27.65,27.65,0,0,1-3.32.42c-1.09.07-2.08.1-3,.1a31.13,31.13,0,0,1-8.34-1.08,24,24,0,0,1-6.82-3L770,965a20.59,20.59,0,0,0,5.37,1.92,28.7,28.7,0,0,0,6,.63l1.72,0c.71,0,1.46,0,2.26-.13a22.11,22.11,0,0,0,2.4-.37,10.23,10.23,0,0,0,2.19-.71,4.57,4.57,0,0,0,1.59-1.17,2.62,2.62,0,0,0,.61-1.76c0-2.1-1.34-3.28-4-3.54-1.36-.13-2.78-.26-4.26-.37s-3-.2-4.65-.29a32,32,0,0,1-8.94-1.68C767.62,956.55,766.28,954.41,766.28,951.06Z" transform="translate(-50.15 -85.92)"/><path class="cls-1" d="M815.39,965.44l-3.18,6.19h-4.83l14.91-28.84h4.81L842,971.63h-4.81L834,965.44Zm9.29-18-7.15,13.89h14.3Z" transform="translate(-50.15 -85.92)"/><path class="cls-1" d="M853,942.79h4.32v24.73h26v4.11H853Z" transform="translate(-50.15 -85.92)"/><path class="cls-1" d="M921.55,957.23a13.51,13.51,0,0,1-4.46,10.18,15.66,15.66,0,0,1-21.39,0,13.51,13.51,0,0,1-4.43-10.18V942.79h4.32v14.44a9.49,9.49,0,0,0,.85,4,10.56,10.56,0,0,0,2.34,3.28,11.21,11.21,0,0,0,3.45,2.21,11.06,11.06,0,0,0,8.36,0,11.14,11.14,0,0,0,3.43-2.22,10.77,10.77,0,0,0,2.33-3.28,9.41,9.41,0,0,0,.85-4V942.79h4.35Z" transform="translate(-50.15 -85.92)"/><path class="cls-1" d="M932.37,942.79h15.17A14.85,14.85,0,0,1,958.19,947a13.86,13.86,0,0,1,0,20.37,14.86,14.86,0,0,1-10.65,4.22H932.37Zm15.17,24.73a10.82,10.82,0,0,0,4.15-.82,11.19,11.19,0,0,0,3.44-2.22,10.74,10.74,0,0,0,2.32-3.28,9.62,9.62,0,0,0,0-8,10.62,10.62,0,0,0-2.32-3.28,11,11,0,0,0-3.44-2.23,10.81,10.81,0,0,0-4.15-.81H936.69v20.59Z" transform="translate(-50.15 -85.92)"/><path class="cls-1" d="M216.62,833.32l-19.81,38H166.73l92.84-176.79h29.94l92.7,176.79H352.28l-19.82-38ZM274.47,723,229.93,808.1H319Z" transform="translate(-50.15 -85.92)"/><path class="cls-2" d="M386.87,694.49H575.46v25.35H494.61V871.28h-26.9V719.84H386.87Z" transform="translate(-50.15 -85.92)"/><path class="cls-1" d="M642.88,694.49H777.52a54.36,54.36,0,0,1,20.76,4,56.09,56.09,0,0,1,17.21,11A52.18,52.18,0,0,1,827.2,725.6a45.6,45.6,0,0,1,4.27,19.46,46.44,46.44,0,0,1-4.27,19.59,49.23,49.23,0,0,1-11.71,16.06,57.87,57.87,0,0,1-17.21,10.78,54.17,54.17,0,0,1-20.76,4H669.78v75.79h-26.9Zm134.64,75.78a26.91,26.91,0,0,0,10.42-2,27.92,27.92,0,0,0,8.53-5.42,26,26,0,0,0,5.78-8,22.59,22.59,0,0,0,2.17-9.76,22.23,22.23,0,0,0-2.17-9.7,26.59,26.59,0,0,0-5.85-8,28.3,28.3,0,0,0-8.54-5.49,26.35,26.35,0,0,0-10.34-2H669.78v50.43Z" transform="translate(-50.15 -85.92)"/><ellipse class="cls-3" cx="267.12" cy="122.8" rx="106.68" ry="107.54"/><ellipse class="cls-4" cx="267.12" cy="124.7" rx="123.58" ry="124.58"/><rect class="cls-5" x="628.34" y="372.31" width="64.89" height="21.54" transform="translate(609.26 1060.96) rotate(-120)"/><rect class="cls-6" x="635.26" y="245.28" width="117.5" height="15.44" transform="translate(1327.96 -111.58) rotate(137.81)"/><rect class="cls-7" x="475.88" y="332.19" width="117.5" height="27.09" transform="translate(1085.26 470.56) rotate(166.44)"/><rect class="cls-8" x="342.17" y="432.56" width="103.46" height="29.08" transform="translate(917.12 198.99) rotate(115.59)"/><rect class="cls-9" x="345.69" y="276.05" width="89.27" height="32.29" transform="translate(314.39 -280.63) rotate(50.15)"/><ellipse class="cls-10" cx="700.29" cy="118.01" rx="38.8" ry="40.24"/><ellipse class="cls-11" cx="575.87" cy="230.29" rx="51.82" ry="53.75"/><circle class="cls-12" cx="645.58" cy="369.81" r="56.19"/><circle class="cls-13" cx="393.36" cy="279.48" r="55.42"/><circle class="cls-14" cx="288.38" cy="455.51" r="76.58"/><circle class="cls-15" cx="266.87" cy="122.27" r="86.5"/></svg>